<svg xmlns="http://www.w3.org/2000/svg" width="980" height="380" viewBox="0 0 980 380">
  <rect width="100%" height="100%" fill="white"/>
  <style>.k{fill:#f5f5f5;stroke:#111;stroke-width:2}.o{font:700 34px sans-serif}.p{font:10px sans-serif;fill:#555}.t{font:700 28px sans-serif}.s{font:13px sans-serif}</style>
  <text x="35" y="35" class="t">TIKL-26 v1</text>
  <text x="35" y="58" class="s">Large letter = output; corner letter = physical QWERTY key</text>
  <g transform="translate(35,75)">
    <g id="top">
      <rect class="k" x="0" y="0" width="82" height="82" rx="8"/><text class="p" x="7" y="15">Q</text><text class="o" x="41" y="56" text-anchor="middle">J</text>
      <rect class="k" x="90" y="0" width="82" height="82" rx="8"/><text class="p" x="97" y="15">W</text><text class="o" x="131" y="56" text-anchor="middle">B</text>
      <rect class="k" x="180" y="0" width="82" height="82" rx="8"/><text class="p" x="187" y="15">E</text><text class="o" x="221" y="56" text-anchor="middle">L</text>
      <rect class="k" x="270" y="0" width="82" height="82" rx="8"/><text class="p" x="277" y="15">R</text><text class="o" x="311" y="56" text-anchor="middle">D</text>
      <rect class="k" x="360" y="0" width="82" height="82" rx="8"/><text class="p" x="367" y="15">T</text><text class="o" x="401" y="56" text-anchor="middle">F</text>
      <rect class="k" x="450" y="0" width="82" height="82" rx="8"/><text class="p" x="457" y="15">Y</text><text class="o" x="491" y="56" text-anchor="middle">Q</text>
      <rect class="k" x="540" y="0" width="82" height="82" rx="8"/><text class="p" x="547" y="15">U</text><text class="o" x="581" y="56" text-anchor="middle">U</text>
      <rect class="k" x="630" y="0" width="82" height="82" rx="8"/><text class="p" x="637" y="15">I</text><text class="o" x="671" y="56" text-anchor="middle">O</text>
      <rect class="k" x="720" y="0" width="82" height="82" rx="8"/><text class="p" x="727" y="15">O</text><text class="o" x="761" y="56" text-anchor="middle">Y</text>
      <rect class="k" x="810" y="0" width="82" height="82" rx="8"/><text class="p" x="817" y="15">P</text><text class="o" x="851" y="56" text-anchor="middle">K</text>
    </g>
    <g transform="translate(20,90)">
      <rect class="k" x="0" y="0" width="82" height="82" rx="8"/><text class="p" x="7" y="15">A</text><text class="o" x="41" y="56" text-anchor="middle">R</text>
      <rect class="k" x="90" y="0" width="82" height="82" rx="8"/><text class="p" x="97" y="15">S</text><text class="o" x="131" y="56" text-anchor="middle">N</text>
      <rect class="k" x="180" y="0" width="82" height="82" rx="8"/><text class="p" x="187" y="15">D</text><text class="o" x="221" y="56" text-anchor="middle">T</text>
      <rect class="k" x="270" y="0" width="82" height="82" rx="8"/><text class="p" x="277" y="15">F</text><text class="o" x="311" y="56" text-anchor="middle">S</text>
      <rect class="k" x="360" y="0" width="82" height="82" rx="8"/><text class="p" x="367" y="15">G</text><text class="o" x="401" y="56" text-anchor="middle">C</text>
      <rect class="k" x="450" y="0" width="82" height="82" rx="8"/><text class="p" x="457" y="15">H</text><text class="o" x="491" y="56" text-anchor="middle">I</text>
      <rect class="k" x="540" y="0" width="82" height="82" rx="8"/><text class="p" x="547" y="15">J</text><text class="o" x="581" y="56" text-anchor="middle">E</text>
      <rect class="k" x="630" y="0" width="82" height="82" rx="8"/><text class="p" x="637" y="15">K</text><text class="o" x="671" y="56" text-anchor="middle">A</text>
      <rect class="k" x="720" y="0" width="82" height="82" rx="8"/><text class="p" x="727" y="15">L</text><text class="o" x="761" y="56" text-anchor="middle">H</text>
    </g>
    <g transform="translate(58,180)">
      <rect class="k" x="0" y="0" width="82" height="82" rx="8"/><text class="p" x="7" y="15">Z</text><text class="o" x="41" y="56" text-anchor="middle">W</text>
      <rect class="k" x="90" y="0" width="82" height="82" rx="8"/><text class="p" x="97" y="15">X</text><text class="o" x="131" y="56" text-anchor="middle">P</text>
      <rect class="k" x="180" y="0" width="82" height="82" rx="8"/><text class="p" x="187" y="15">C</text><text class="o" x="221" y="56" text-anchor="middle">M</text>
      <rect class="k" x="270" y="0" width="82" height="82" rx="8"/><text class="p" x="277" y="15">V</text><text class="o" x="311" y="56" text-anchor="middle">G</text>
      <rect class="k" x="360" y="0" width="82" height="82" rx="8"/><text class="p" x="367" y="15">B</text><text class="o" x="401" y="56" text-anchor="middle">V</text>
      <rect class="k" x="450" y="0" width="82" height="82" rx="8"/><text class="p" x="457" y="15">N</text><text class="o" x="491" y="56" text-anchor="middle">Z</text>
      <rect class="k" x="540" y="0" width="82" height="82" rx="8"/><text class="p" x="547" y="15">M</text><text class="o" x="581" y="56" text-anchor="middle">X</text>
    </g>
  </g>
  <text x="35" y="360" class="s">Space, punctuation, numbers and modifiers remain conventional.</text>
</svg>
